<?xml version="1.0" encoding="utf-8"?>
<!-- Generator: Adobe Illustrator 19.2.0, SVG Export Plug-In . SVG Version: 6.00 Build 0)  -->
<svg version="1.1" id="_x35_12bbfed-d039-4918-8010-046ef5454dff"
	 xmlns="http://www.w3.org/2000/svg" xmlns:xlink="http://www.w3.org/1999/xlink" x="0px" y="0px" viewBox="0 0 471 75"
	 style="enable-background:new 0 0 471 75;" xml:space="preserve">
<style type="text/css">
	.st0{fill:#6151E1;}
</style>
<title>rating-1</title>
<polygon class="st0" points="39.6,0 48.9,28.6 79.2,28.6 54.7,46.3 64.1,75 39.6,57.3 15.1,75 24.5,46.3 0,28.6 30.2,28.6 "/>
<polygon class="st0" points="137.6,0 146.9,28.6 177.1,28.6 152.7,46.3 162,75 137.6,57.3 113.1,75 122.4,46.3 97.9,28.6 
	128.2,28.6 "/>
<polygon class="st0" points="235.5,0 244.9,28.6 275.1,28.6 250.6,46.3 260,75 235.5,57.3 211,75 220.4,46.3 195.9,28.6 226.1,28.6 
	"/>
<polygon class="st0" points="333.5,0 342.8,28.6 373,28.6 348.6,46.3 357.9,75 333.5,57.3 309,75 318.3,46.3 293.9,28.6 324.1,28.6 
	"/>
<polygon class="st0" points="431.4,0 440.8,28.6 471,28.6 446.5,46.3 455.9,75 431.4,57.3 406.9,75 416.3,46.3 391.8,28.6 
	422.1,28.6 "/>
</svg>
